<svg width="434" height="558" viewBox="0 0 434 558" fill="none" xmlns="http://www.w3.org/2000/svg">
<path d="M313.13 132.35H433.46L302.14 0.55957V121.45C302.144 127.465 307.066 132.345 313.132 132.345L313.13 132.35Z" fill="white"/>
<path d="M431.01 142.92H430.869L302.049 142.896C296.288 142.896 291.596 138.205 291.596 132.443L291.6 2.96336C291.6 2.4282 291.53 1.95946 291.6 1.44776C291.647 1.14307 291.553 0.842288 291.6 0.537598H33.2102C15.2222 0.537598 0.542236 15.1896 0.542236 33.2056V524.776C0.542236 542.764 15.2182 557.444 33.2102 557.444H400.8C418.788 557.444 433.468 542.768 433.468 524.776V142.926C432.652 143.133 431.855 142.926 431.015 142.926L431.01 142.92ZM168.81 358.19C163.607 362.131 157.025 364.092 149.048 364.092C139.177 364.092 131.06 360.709 124.689 353.967C118.318 347.225 115.146 337.983 115.146 326.272C115.146 313.881 118.341 304.268 124.736 297.409C131.13 290.55 139.529 287.143 149.959 287.143C159.06 287.143 166.455 289.827 172.15 295.217C175.533 298.389 178.076 302.963 179.755 308.912L164.892 312.459C163.982 308.631 162.162 305.6 159.361 303.358C156.56 301.119 153.177 299.998 149.185 299.998C143.677 299.998 139.197 301.983 135.767 305.947C132.337 309.912 130.611 316.306 130.611 325.174C130.611 334.577 132.314 341.276 135.697 345.264C139.08 349.252 143.466 351.26 148.904 351.26C152.892 351.26 156.326 349.999 159.216 347.456C162.087 344.913 164.161 340.921 165.399 335.487L179.958 340.108C177.701 348.229 173.99 354.249 168.81 358.19L168.81 358.19ZM245.974 353.151C243.595 356.885 240.259 359.639 235.915 361.459C231.575 363.28 226.184 364.166 219.724 364.166C210.322 364.166 203.087 361.994 198.048 357.655C193.009 353.315 189.997 346.967 189.017 338.639L203.622 337.217C204.508 342.115 206.282 345.732 208.966 348.022C211.649 350.307 215.29 351.475 219.864 351.475C224.692 351.475 228.356 350.447 230.805 348.397C233.254 346.342 234.492 343.963 234.492 341.209C234.492 339.459 233.98 337.944 232.953 336.705C231.926 335.467 230.129 334.397 227.539 333.486C225.789 332.881 221.777 331.783 215.5 330.244C207.449 328.236 201.805 325.787 198.535 322.893C193.961 318.811 191.675 313.815 191.675 307.913C191.675 304.131 192.75 300.585 194.894 297.272C197.043 293.983 200.144 291.463 204.179 289.736C208.215 288.01 213.094 287.147 218.831 287.147C228.163 287.147 235.186 289.201 239.925 293.283C244.64 297.365 247.136 302.85 247.367 309.685L232.34 310.338C231.688 306.51 230.309 303.76 228.211 302.099C226.109 300.443 222.914 299.58 218.691 299.58C214.328 299.58 210.898 300.467 208.449 302.264C206.864 303.408 206.071 304.947 206.071 306.885C206.071 308.635 206.817 310.15 208.309 311.412C210.199 312.998 214.797 314.654 222.121 316.381C229.426 318.107 234.836 319.881 238.336 321.725C241.836 323.568 244.59 326.088 246.551 329.283C248.512 332.478 249.515 336.424 249.515 341.135C249.519 345.428 248.351 349.42 245.972 353.151L245.974 353.151ZM315.298 353.151C312.919 356.885 309.583 359.639 305.239 361.459C300.899 363.28 295.508 364.166 289.048 364.166C279.646 364.166 272.411 361.994 267.372 357.655C262.333 353.315 259.321 346.967 258.341 338.639L272.946 337.217C273.832 342.115 275.606 345.732 278.29 348.022C280.973 350.307 284.614 351.475 289.188 351.475C294.016 351.475 297.68 350.447 300.129 348.397C302.578 346.342 303.816 343.963 303.816 341.209C303.816 339.459 303.304 337.944 302.277 336.705C301.25 335.467 299.453 334.397 296.863 333.486C295.113 332.881 291.101 331.783 284.824 330.244C276.773 328.236 271.129 325.787 267.859 322.893C263.285 318.811 260.999 313.815 260.999 307.913C260.999 304.131 262.074 300.585 264.218 297.272C266.367 293.983 269.468 291.463 273.503 289.736C277.539 288.01 282.441 287.147 288.155 287.147C297.487 287.147 304.534 289.201 309.249 293.283C313.964 297.365 316.46 302.85 316.691 309.685L301.664 310.338C301.012 306.51 299.633 303.76 297.535 302.099C295.433 300.443 292.238 299.58 288.015 299.58C283.652 299.58 280.222 300.467 277.773 302.264C276.188 303.408 275.395 304.947 275.395 306.885C275.395 308.635 276.141 310.15 277.633 311.412C279.523 312.998 284.121 314.654 291.445 316.381C298.75 318.107 304.16 319.881 307.66 321.725C311.16 323.568 313.914 326.088 315.875 329.283C317.836 332.478 318.839 336.424 318.839 341.135C318.867 345.428 317.675 349.42 315.296 353.151L315.298 353.151Z" fill="white"/>
</svg>
