<?xml version="1.0" encoding="UTF-8"?>
<svg width="700pt" height="700pt" version="1.1" viewBox="0 0 700 700" xmlns="http://www.w3.org/2000/svg">
 <g>
  <path d="m525 52.5h-350c-13.926 0-27.277 5.5312-37.125 15.375-9.8438 9.8477-15.375 23.199-15.375 37.125v350c0 13.926 5.5312 27.277 15.375 37.125 9.8477 9.8438 23.199 15.375 37.125 15.375h350c13.926 0 27.277-5.5312 37.125-15.375 9.8438-9.8477 15.375-23.199 15.375-37.125v-350c0-13.926-5.5312-27.277-15.375-37.125-9.8477-9.8438-23.199-15.375-37.125-15.375zm-367.5 52.5c0-4.6406 1.8438-9.0938 5.125-12.375s7.7344-5.125 12.375-5.125h350c4.6406 0 9.0938 1.8438 12.375 5.125s5.125 7.7344 5.125 12.375v52.5h-385zm385 350c0 4.6406-1.8438 9.0938-5.125 12.375s-7.7344 5.125-12.375 5.125h-350c-4.6406 0-9.0938-1.8438-12.375-5.125s-5.125-7.7344-5.125-12.375v-262.5h385z"/>
  <path d="m385 105h-70c-6.2539 0-12.031 3.3359-15.156 8.75s-3.125 12.086 0 17.5 8.9023 8.75 15.156 8.75h70c6.2539 0 12.031-3.3359 15.156-8.75s3.125-12.086 0-17.5-8.9023-8.75-15.156-8.75z"/>
  <path d="m326.97 401.59c4.4023 1.4648 9.2031 1.1211 13.348-0.95312 4.1484-2.0742 7.3047-5.707 8.7734-10.105l35-105c1.9766-5.9414 0.63281-12.484-3.5234-17.164-4.1562-4.6797-10.492-6.7891-16.625-5.5312-6.1328 1.2617-11.125 5.6953-13.102 11.633l-35 105c-1.4609 4.4102-1.1055 9.2188 0.98047 13.367 2.0859 4.1484 5.7383 7.3008 10.148 8.7539z"/>
  <path d="m268.78 398.46c3.5703 2.9766 8.1758 4.4102 12.801 3.9922 4.6289-0.42188 8.9023-2.6641 11.875-6.2305 2.9766-3.5703 4.4102-8.1758 3.9922-12.801-0.42188-4.6289-2.6641-8.9023-6.2305-11.875l-52.012-43.312 50.504-33.672c5.2031-3.4688 8.1602-9.4492 7.7539-15.691-0.40234-6.2383-4.1055-11.789-9.7109-14.559-5.6055-2.7695-12.266-2.3398-17.465 1.1328l-70 46.672c-4.5938 3.0625-7.4766 8.1094-7.7695 13.621-0.29688 5.5117 2.0234 10.844 6.2617 14.379z"/>
  <path d="m406.54 396.22c2.9727 3.5742 7.2422 5.8164 11.871 6.2383 4.6289 0.41797 9.2383-1.0195 12.805-4l70-58.328c4.2383-3.5352 6.5586-8.8633 6.2617-14.375-0.29297-5.5117-3.1758-10.562-7.7695-13.625l-70-46.672c-3.8594-2.5742-8.5859-3.5117-13.137-2.6016-4.5547 0.90625-8.5586 3.5898-11.133 7.4492-2.5781 3.8633-3.5156 8.5898-2.6055 13.141 0.91016 4.5508 3.5898 8.5547 7.4531 11.133l50.504 33.672-52.012 43.312v-0.003906c-3.5664 2.9727-5.8086 7.2422-6.2266 11.867-0.42188 4.625 1.0117 9.2266 3.9883 12.793z"/>
 </g>
</svg>
