<?xml version="1.0" encoding="UTF-8"?>
<svg fill="white" width="700pt" height="700pt" version="1.1" viewBox="0 0 700 700" xmlns="http://www.w3.org/2000/svg" xmlns:xlink="http://www.w3.org/1999/xlink">
 <defs>
  <symbol id="t" overflow="visible">
   <path d="m2.1094-0.125c-0.10547 0.054688-0.21875 0.09375-0.34375 0.125-0.11719 0.03125-0.23438 0.046875-0.35938 0.046875-0.38672 0-0.69531-0.10156-0.92188-0.3125-0.21875-0.21875-0.32812-0.50781-0.32812-0.875 0-0.375 0.10938-0.66406 0.32812-0.875 0.22656-0.21875 0.53516-0.32812 0.92188-0.32812 0.125 0 0.24219 0.015625 0.35938 0.046875 0.125 0.03125 0.23828 0.074219 0.34375 0.125v0.48438c-0.10547-0.082031-0.21484-0.14062-0.32812-0.17188-0.10547-0.03125-0.21484-0.046875-0.32812-0.046875-0.21094 0-0.375 0.070312-0.5 0.20312-0.125 0.13672-0.1875 0.32422-0.1875 0.5625 0 0.23047 0.0625 0.41406 0.1875 0.54688 0.125 0.13672 0.28906 0.20312 0.5 0.20312 0.11328 0 0.22266-0.015625 0.32812-0.046875 0.11328-0.03125 0.22266-0.085938 0.32812-0.17188z"/>
  </symbol>
  <symbol id="a" overflow="visible">
   <path d="m1.5469-1.25c-0.054687-0.03125-0.10547-0.050781-0.15625-0.0625-0.042969-0.007812-0.085937-0.015625-0.125-0.015625-0.14844 0-0.26172 0.046875-0.34375 0.14062-0.074219 0.09375-0.10938 0.22656-0.10938 0.39062v0.79688h-0.54688v-1.7188h0.54688v0.28125c0.070312-0.11328 0.15625-0.19531 0.25-0.25 0.09375-0.050781 0.20312-0.078125 0.32812-0.078125h0.0625c0.019531 0 0.050781 0.007813 0.09375 0.015625z"/>
  </symbol>
  <symbol id="d" overflow="visible">
   <path d="m1.9844-0.875v0.17188h-1.2812c0.007813 0.125 0.050781 0.21875 0.125 0.28125 0.082031 0.0625 0.19531 0.09375 0.34375 0.09375 0.11328 0 0.23438-0.015625 0.35938-0.046875s0.25-0.082031 0.375-0.15625v0.42188c-0.13672 0.054688-0.27344 0.089844-0.40625 0.10938-0.125 0.03125-0.25 0.046875-0.375 0.046875-0.3125 0-0.55859-0.078125-0.73438-0.23438-0.16797-0.16406-0.25-0.39062-0.25-0.67188s0.082031-0.5 0.25-0.65625c0.16406-0.16406 0.39844-0.25 0.70312-0.25 0.26953 0 0.48438 0.085937 0.64062 0.25 0.16406 0.15625 0.25 0.37109 0.25 0.64062zm-0.5625-0.17188c0-0.10156-0.03125-0.1875-0.09375-0.25-0.0625-0.070313-0.14062-0.10938-0.23438-0.10938-0.11719 0-0.20312 0.03125-0.26562 0.09375s-0.10547 0.15234-0.125 0.26562z"/>
  </symbol>
  <symbol id="f" overflow="visible">
   <path d="m1.0312-0.78125c-0.11719 0-0.20312 0.023438-0.26562 0.0625-0.054687 0.042969-0.078125 0.10156-0.078125 0.17188 0 0.074219 0.019531 0.13281 0.0625 0.17188 0.050781 0.03125 0.11719 0.046875 0.20312 0.046875 0.10156 0 0.19141-0.035156 0.26562-0.10938 0.070312-0.070312 0.10938-0.16406 0.10938-0.28125v-0.0625zm0.84375-0.20312v0.98438h-0.54688v-0.25c-0.074219 0.10547-0.15625 0.18359-0.25 0.23438-0.09375 0.039062-0.21094 0.0625-0.34375 0.0625-0.17969 0-0.32422-0.050781-0.4375-0.15625-0.10547-0.10156-0.15625-0.23828-0.15625-0.40625 0-0.20703 0.066406-0.35938 0.20312-0.45312 0.13281-0.09375 0.35156-0.14062 0.65625-0.14062h0.32812v-0.03125c0-0.09375-0.039063-0.16016-0.10938-0.20312-0.0625-0.039062-0.16797-0.0625-0.3125-0.0625-0.125 0-0.24219 0.015625-0.34375 0.046875-0.09375 0.023437-0.1875 0.054687-0.28125 0.09375v-0.42188c0.125-0.019531 0.24219-0.035156 0.35938-0.046875 0.125-0.019531 0.24219-0.03125 0.35938-0.03125 0.3125 0 0.53516 0.0625 0.67188 0.1875 0.13281 0.11719 0.20312 0.3125 0.20312 0.59375z"/>
  </symbol>
  <symbol id="c" overflow="visible">
   <path d="m0.875-2.2188v0.5h0.5625v0.39062h-0.5625v0.73438c0 0.074219 0.015625 0.125 0.046875 0.15625s0.09375 0.046875 0.1875 0.046875h0.28125v0.39062h-0.46875c-0.21875 0-0.375-0.039062-0.46875-0.125-0.09375-0.09375-0.14062-0.25-0.14062-0.46875v-0.73438h-0.26562v-0.39062h0.26562v-0.5z"/>
  </symbol>
  <symbol id="k" overflow="visible">
   <path d="m1.4375-1.4688v-0.92188h0.5625v2.3906h-0.5625v-0.25c-0.074219 0.10547-0.15625 0.18359-0.25 0.23438-0.09375 0.039062-0.19922 0.0625-0.3125 0.0625-0.21875 0-0.39844-0.082031-0.53125-0.25-0.13672-0.17578-0.20312-0.39453-0.20312-0.65625 0-0.26953 0.066406-0.48828 0.20312-0.65625 0.13281-0.16406 0.3125-0.25 0.53125-0.25 0.11328 0 0.21875 0.027344 0.3125 0.078125 0.09375 0.042969 0.17578 0.11719 0.25 0.21875zm-0.35938 1.1094c0.11328 0 0.20312-0.039063 0.26562-0.125 0.0625-0.082031 0.09375-0.20703 0.09375-0.375 0-0.16406-0.03125-0.28906-0.09375-0.375-0.0625-0.082031-0.15234-0.125-0.26562-0.125-0.11719 0-0.20312 0.042969-0.26562 0.125-0.0625 0.085937-0.09375 0.21094-0.09375 0.375 0 0.16797 0.03125 0.29297 0.09375 0.375 0.0625 0.085937 0.14844 0.125 0.26562 0.125z"/>
  </symbol>
  <symbol id="j" overflow="visible">
   <path d="m1.1875-0.35938c0.11328 0 0.20312-0.039063 0.26562-0.125 0.0625-0.082031 0.09375-0.20703 0.09375-0.375 0-0.16406-0.03125-0.28906-0.09375-0.375-0.0625-0.082031-0.15234-0.125-0.26562-0.125-0.125 0-0.21875 0.042969-0.28125 0.125-0.0625 0.085937-0.09375 0.21094-0.09375 0.375 0 0.16797 0.03125 0.29297 0.09375 0.375 0.0625 0.085937 0.15625 0.125 0.28125 0.125zm-0.375-1.1094c0.082031-0.10156 0.16406-0.17578 0.25-0.21875 0.09375-0.050781 0.20312-0.078125 0.32812-0.078125 0.20703 0 0.37891 0.085937 0.51562 0.25 0.14453 0.16797 0.21875 0.38672 0.21875 0.65625 0 0.26172-0.074219 0.48047-0.21875 0.65625-0.13672 0.16797-0.30859 0.25-0.51562 0.25-0.125 0-0.23438-0.023438-0.32812-0.0625-0.085938-0.050781-0.16797-0.12891-0.25-0.23438v0.25h-0.54688v-2.3906h0.54688z"/>
  </symbol>
  <symbol id="i" overflow="visible">
   <path d="m0.03125-1.7188h0.5625l0.45312 1.1562 0.40625-1.1562h0.54688l-0.71875 1.875c-0.074219 0.19531-0.16406 0.33203-0.26562 0.40625-0.09375 0.082031-0.21875 0.125-0.375 0.125h-0.32812v-0.375h0.17188c0.09375 0 0.16016-0.015625 0.20312-0.046875 0.039062-0.023437 0.078125-0.074219 0.10938-0.15625l0.015625-0.046875z"/>
  </symbol>
  <symbol id="e" overflow="visible">
   <path d="m0.8125-0.25v0.90625h-0.54688v-2.375h0.54688v0.25c0.082031-0.10156 0.16406-0.17578 0.25-0.21875 0.09375-0.050781 0.20312-0.078125 0.32812-0.078125 0.20703 0 0.37891 0.085937 0.51562 0.25 0.14453 0.16797 0.21875 0.38672 0.21875 0.65625 0 0.26172-0.074219 0.48047-0.21875 0.65625-0.13672 0.16797-0.30859 0.25-0.51562 0.25-0.125 0-0.23438-0.023438-0.32812-0.0625-0.085938-0.050781-0.16797-0.12891-0.25-0.23438zm0.375-1.1094c-0.125 0-0.21875 0.042969-0.28125 0.125-0.0625 0.085937-0.09375 0.21094-0.09375 0.375 0 0.16797 0.03125 0.29297 0.09375 0.375 0.0625 0.085937 0.15625 0.125 0.28125 0.125 0.11328 0 0.20312-0.039063 0.26562-0.125 0.0625-0.082031 0.09375-0.20703 0.09375-0.375 0-0.16406-0.03125-0.28906-0.09375-0.375-0.0625-0.082031-0.15234-0.125-0.26562-0.125z"/>
  </symbol>
  <symbol id="b" overflow="visible">
   <path d="m1.0938-1.375c-0.125 0-0.22656 0.046875-0.29688 0.14062-0.0625 0.085937-0.09375 0.21094-0.09375 0.375 0 0.16797 0.03125 0.29688 0.09375 0.39062 0.070313 0.085938 0.17188 0.125 0.29688 0.125 0.11328 0 0.20312-0.039062 0.26562-0.125 0.0625-0.09375 0.09375-0.22266 0.09375-0.39062 0-0.16406-0.03125-0.28906-0.09375-0.375-0.0625-0.09375-0.15234-0.14062-0.26562-0.14062zm0-0.39062c0.28906 0 0.51953 0.085937 0.6875 0.25 0.16406 0.15625 0.25 0.375 0.25 0.65625s-0.085938 0.50781-0.25 0.67188c-0.16797 0.15625-0.39844 0.23438-0.6875 0.23438-0.30469 0-0.53906-0.078125-0.70312-0.23438-0.16797-0.16406-0.25-0.39062-0.25-0.67188s0.082031-0.5 0.25-0.65625c0.16406-0.16406 0.39844-0.25 0.70312-0.25z"/>
  </symbol>
  <symbol id="h" overflow="visible">
   <path d="m1.6562-1.6719v0.45312c-0.074219-0.050781-0.14844-0.085938-0.21875-0.10938-0.074219-0.03125-0.15234-0.046875-0.23438-0.046875-0.15625 0-0.28125 0.046875-0.375 0.14062-0.085937 0.085937-0.125 0.21094-0.125 0.375 0 0.15625 0.039063 0.28125 0.125 0.375 0.09375 0.09375 0.21875 0.14062 0.375 0.14062 0.082031 0 0.16016-0.007812 0.23438-0.03125 0.082031-0.03125 0.15625-0.070312 0.21875-0.125v0.45312c-0.085938 0.03125-0.17188 0.050781-0.26562 0.0625-0.085937 0.019531-0.17188 0.03125-0.26562 0.03125-0.3125 0-0.55859-0.078125-0.73438-0.23438-0.16797-0.16406-0.25-0.39062-0.25-0.67188s0.082031-0.5 0.25-0.65625c0.17578-0.16406 0.42188-0.25 0.73438-0.25 0.09375 0 0.17969 0.011719 0.26562 0.03125 0.09375 0.011719 0.17969 0.03125 0.26562 0.0625z"/>
  </symbol>
  <symbol id="g" overflow="visible">
   <path d="m2-1.0469v1.0469h-0.54688v-0.79688c0-0.15625-0.007813-0.25781-0.015625-0.3125-0.011719-0.0625-0.023438-0.10156-0.03125-0.125-0.023438-0.039063-0.054688-0.070313-0.09375-0.09375-0.042969-0.019531-0.085938-0.03125-0.125-0.03125-0.11719 0-0.21094 0.046875-0.28125 0.14062-0.0625 0.09375-0.09375 0.21875-0.09375 0.375v0.84375h-0.54688v-1.7188h0.54688v0.25c0.082031-0.10156 0.17188-0.17578 0.26562-0.21875 0.09375-0.050781 0.19531-0.078125 0.3125-0.078125 0.19531 0 0.34766 0.0625 0.45312 0.1875 0.10156 0.11719 0.15625 0.29297 0.15625 0.53125z"/>
  </symbol>
  <symbol id="s" overflow="visible">
   <path d="m1.6094-1.6719v0.42188c-0.11719-0.050781-0.23047-0.085938-0.34375-0.10938-0.10547-0.03125-0.21094-0.046875-0.3125-0.046875-0.10547 0-0.18359 0.015625-0.23438 0.046875-0.042969 0.023437-0.0625 0.0625-0.0625 0.125 0 0.042969 0.015625 0.074219 0.046875 0.09375 0.039063 0.023437 0.11328 0.039063 0.21875 0.046875l0.09375 0.015625c0.28125 0.042969 0.46875 0.10547 0.5625 0.1875 0.10156 0.085937 0.15625 0.21094 0.15625 0.375 0 0.1875-0.070313 0.32812-0.20312 0.42188-0.13672 0.09375-0.33984 0.14062-0.60938 0.14062-0.11719 0-0.23438-0.011719-0.35938-0.03125-0.125-0.019531-0.25-0.046875-0.375-0.078125v-0.42188c0.11328 0.054687 0.22656 0.09375 0.34375 0.125 0.11328 0.023437 0.22656 0.03125 0.34375 0.03125 0.11328 0 0.19531-0.007813 0.25-0.03125 0.050781-0.03125 0.078125-0.078125 0.078125-0.14062 0-0.050781-0.023437-0.085938-0.0625-0.10938-0.03125-0.019531-0.10547-0.039063-0.21875-0.0625h-0.09375c-0.25-0.03125-0.42969-0.085937-0.53125-0.17188-0.09375-0.082031-0.14062-0.21094-0.14062-0.39062 0-0.17578 0.0625-0.30469 0.1875-0.39062 0.13281-0.09375 0.32812-0.14062 0.57812-0.14062 0.10156 0 0.21094 0.011719 0.32812 0.03125 0.11328 0.011719 0.23438 0.03125 0.35938 0.0625z"/>
  </symbol>
  <symbol id="r" overflow="visible">
   <path d="m1.4062-2.3906v0.35938h-0.3125c-0.074219 0-0.125 0.015625-0.15625 0.046875-0.03125 0.023437-0.046875 0.070313-0.046875 0.14062v0.125h0.46875v0.39062h-0.46875v1.3281h-0.5625v-1.3281h-0.26562v-0.39062h0.26562v-0.125c0-0.1875 0.050781-0.32031 0.15625-0.40625 0.11328-0.09375 0.28125-0.14062 0.5-0.14062z"/>
  </symbol>
  <symbol id="q" overflow="visible">
   <path d="m1.8594-1.4375c0.070313-0.10156 0.15625-0.17969 0.25-0.23438 0.09375-0.0625 0.20312-0.09375 0.32812-0.09375 0.19531 0 0.34766 0.0625 0.45312 0.1875 0.10156 0.11719 0.15625 0.29297 0.15625 0.53125v1.0469h-0.5625v-0.90625-0.03125-0.0625c0-0.125-0.023437-0.21094-0.0625-0.26562-0.03125-0.0625-0.085937-0.09375-0.15625-0.09375-0.10547 0-0.1875 0.046875-0.25 0.14062-0.054687 0.085938-0.085937 0.21094-0.09375 0.375v0.84375h-0.54688v-0.90625c0-0.1875-0.015625-0.30469-0.046875-0.35938-0.03125-0.0625-0.09375-0.09375-0.1875-0.09375-0.10547 0-0.1875 0.046875-0.25 0.14062-0.054687 0.085938-0.078125 0.21094-0.078125 0.375v0.84375h-0.54688v-1.7188h0.54688v0.25c0.070312-0.10156 0.14844-0.17578 0.23438-0.21875 0.09375-0.050781 0.19141-0.078125 0.29688-0.078125 0.11328 0 0.21875 0.03125 0.3125 0.09375 0.09375 0.054687 0.16016 0.13281 0.20312 0.23438z"/>
  </symbol>
  <symbol id="p" overflow="visible">
   <path d="m2-1.0469v1.0469h-0.54688v-0.79688c0-0.15625-0.007813-0.25781-0.015625-0.3125-0.011719-0.0625-0.023438-0.10156-0.03125-0.125-0.023438-0.039063-0.054688-0.070313-0.09375-0.09375-0.042969-0.019531-0.085938-0.03125-0.125-0.03125-0.11719 0-0.21094 0.046875-0.28125 0.14062-0.0625 0.09375-0.09375 0.21875-0.09375 0.375v0.84375h-0.54688v-2.3906h0.54688v0.92188c0.082031-0.10156 0.17188-0.17578 0.26562-0.21875 0.09375-0.050781 0.19531-0.078125 0.3125-0.078125 0.19531 0 0.34766 0.0625 0.45312 0.1875 0.10156 0.11719 0.15625 0.29297 0.15625 0.53125z"/>
  </symbol>
  <symbol id="o" overflow="visible">
   <path d="m0.29688-2.2969h0.65625l0.84375 1.5781v-1.5781h0.5625v2.2969h-0.67188l-0.82812-1.5781v1.5781h-0.5625z"/>
  </symbol>
  <symbol id="n" overflow="visible">
   <path d="m0.25-0.67188v-1.0469h0.54688v0.17188 0.35938 0.26562 0.3125c0.007813 0.054687 0.023437 0.09375 0.046875 0.125 0.019531 0.03125 0.046875 0.058594 0.078125 0.078125 0.039063 0.023438 0.085937 0.03125 0.14062 0.03125 0.11328 0 0.20312-0.039062 0.26562-0.125 0.070313-0.09375 0.10938-0.21875 0.10938-0.375v-0.84375h0.54688v1.7188h-0.54688v-0.25c-0.085938 0.10547-0.17188 0.18359-0.26562 0.23438-0.09375 0.039062-0.19922 0.0625-0.3125 0.0625-0.19922 0-0.35156-0.0625-0.45312-0.1875-0.10547-0.125-0.15625-0.30078-0.15625-0.53125z"/>
  </symbol>
  <symbol id="m" overflow="visible">
   <path d="m0.29688-2.2969h0.98438c0.28906 0 0.51562 0.070313 0.67188 0.20312 0.15625 0.125 0.23438 0.30859 0.23438 0.54688 0 0.24219-0.078125 0.42969-0.23438 0.5625-0.15625 0.125-0.38281 0.1875-0.67188 0.1875h-0.39062v0.79688h-0.59375zm0.59375 0.42188v0.64062h0.32812c0.11328 0 0.20312-0.023437 0.26562-0.078125 0.0625-0.050781 0.09375-0.12891 0.09375-0.23438 0-0.10156-0.03125-0.17969-0.09375-0.23438-0.0625-0.0625-0.15234-0.09375-0.26562-0.09375z"/>
  </symbol>
  <symbol id="l" overflow="visible">
   <path d="m0.26562-1.7188h0.54688v1.6875c0 0.22656-0.058594 0.40625-0.17188 0.53125-0.10547 0.125-0.26172 0.1875-0.46875 0.1875h-0.28125v-0.375h0.09375c0.10156 0 0.17578-0.027344 0.21875-0.078125 0.039063-0.042969 0.0625-0.13281 0.0625-0.26562zm0-0.67188h0.54688v0.4375h-0.54688z"/>
  </symbol>
 </defs>
 <g>
  <path d="m606.31 529.72h-512.62c-7.2461 0-13.121-5.8789-13.121-13.121v-473.2c0-7.2461 5.8789-13.121 13.121-13.121h512.62c7.2461 0 13.121 5.8789 13.121 13.121v473.2c0 7.2461-5.8789 13.121-13.121 13.121zm-303.34-415.98c0-7.2461 5.8789-13.121 13.121-13.121 7.2461 0 13.121 5.8789 13.121 13.121v332.5c0 7.2461-5.8789 13.121-13.121 13.121-7.2461 0-13.121-5.8789-13.121-13.121zm-137.82 83.133c-7.2461 0-13.121-5.8789-13.121-13.121 0-7.2461 5.8789-13.121 13.121-13.121h87.5c7.2461 0 13.121 5.8789 13.121 13.121 0 7.2461-5.8789 13.121-13.121 13.121zm0 192.5c-7.2461 0-13.121-5.8789-13.121-13.121 0-7.2461 5.8789-13.121 13.121-13.121h87.5c7.2461 0 13.121 5.8789 13.121 13.121 0 7.2461-5.8789 13.121-13.121 13.121zm0-64.164c-7.2461 0-13.121-5.8789-13.121-13.121 0-7.2461 5.8789-13.121 13.121-13.121h87.5c7.2461 0 13.121 5.8789 13.121 13.121 0 7.2461-5.8789 13.121-13.121 13.121zm0-64.164c-7.2461 0-13.121-5.8789-13.121-13.121 0-7.2461 5.8789-13.121 13.121-13.121h87.5c7.2461 0 13.121 5.8789 13.121 13.121 0 7.2461-5.8789 13.121-13.121 13.121zm194.69-90.418c-7.2461 0-13.121-5.8789-13.121-13.121 0-7.2461 5.8789-13.121 13.121-13.121h87.5c7.2461 0 13.121 5.8789 13.121 13.121 0 7.2461-5.8789 13.121-13.121 13.121zm52.496 122.5c-7.2461 0-13.121-5.8789-13.121-13.121 0-7.2461 5.8789-13.121 13.121-13.121h122.5c7.2461 0 13.121 5.8789 13.121 13.121 0 7.2461-5.8789 13.121-13.121 13.121zm-17.5 61.25c-7.2461 0-13.121-5.8789-13.121-13.121 0-7.2461 5.8789-13.121 13.121-13.121h87.5c7.2461 0 13.121 5.8789 13.121 13.121 0 7.2461-5.8789 13.121-13.121 13.121zm-34.996 61.25c-7.2461 0-13.121-5.8789-13.121-13.121 0-7.2461 5.8789-13.121 13.121-13.121h87.5c7.2461 0 13.121 5.8789 13.121 13.121 0 7.2461-5.8789 13.121-13.121 13.121zm34.996-183.75c-7.2461 0-13.121-5.8789-13.121-13.121 0-7.2461 5.8789-13.121 13.121-13.121h87.5c7.2461 0 13.121 5.8789 13.121 13.121 0 7.2461-5.8789 13.121-13.121 13.121zm-288.03 271.59h486.37v-446.95h-486.37z"/>
  <use x="70" y="569.449219" xlink:href="#t"/>
  <use x="72.3125" y="569.449219" xlink:href="#a"/>
  <use x="73.863281" y="569.449219" xlink:href="#d"/>
  <use x="76" y="569.449219" xlink:href="#f"/>
  <use x="78.128906" y="569.449219" xlink:href="#c"/>
  <use x="79.632812" y="569.449219" xlink:href="#d"/>
  <use x="81.769531" y="569.449219" xlink:href="#k"/>
  <use x="85.121094" y="569.449219" xlink:href="#j"/>
  <use x="87.375" y="569.449219" xlink:href="#i"/>
  <use x="90.527344" y="569.449219" xlink:href="#e"/>
  <use x="92.78125" y="569.449219" xlink:href="#b"/>
  <use x="94.945312" y="569.449219" xlink:href="#e"/>
  <use x="97.199219" y="569.449219" xlink:href="#h"/>
  <use x="99.066406" y="569.449219" xlink:href="#b"/>
  <use x="101.230469" y="569.449219" xlink:href="#a"/>
  <use x="102.785156" y="569.449219" xlink:href="#g"/>
  <use x="105.027344" y="569.449219" xlink:href="#f"/>
  <use x="107.152344" y="569.449219" xlink:href="#a"/>
  <use x="108.707031" y="569.449219" xlink:href="#c"/>
  <use x="110.210938" y="569.449219" xlink:href="#s"/>
  <use x="70" y="572.601562" xlink:href="#r"/>
  <use x="71.371094" y="572.601562" xlink:href="#a"/>
  <use x="72.925781" y="572.601562" xlink:href="#b"/>
  <use x="75.089844" y="572.601562" xlink:href="#q"/>
  <use x="79.46875" y="572.601562" xlink:href="#c"/>
  <use x="80.972656" y="572.601562" xlink:href="#p"/>
  <use x="83.214844" y="572.601562" xlink:href="#d"/>
  <use x="86.449219" y="572.601562" xlink:href="#o"/>
  <use x="89.085938" y="572.601562" xlink:href="#b"/>
  <use x="91.25" y="572.601562" xlink:href="#n"/>
  <use x="93.492188" y="572.601562" xlink:href="#g"/>
  <use x="96.832031" y="572.601562" xlink:href="#m"/>
  <use x="99.140625" y="572.601562" xlink:href="#a"/>
  <use x="100.691406" y="572.601562" xlink:href="#b"/>
  <use x="102.855469" y="572.601562" xlink:href="#l"/>
  <use x="103.9375" y="572.601562" xlink:href="#d"/>
  <use x="106.074219" y="572.601562" xlink:href="#h"/>
  <use x="107.941406" y="572.601562" xlink:href="#c"/>
 </g>
</svg>
