<?xml version="1.0" encoding="UTF-8"?>
<svg width="50pt" height="50pt" version="1.1" viewBox="0 0 700 700" xmlns="http://www.w3.org/2000/svg">
 <path d="m140 297.5c-9.6641 0-17.5-7.8359-17.5-17.5s7.8359-17.5 17.5-17.5h315c9.6641 0 17.5 7.8359 17.5 17.5s-7.8359 17.5-17.5 17.5zm105 140c-9.6641 0-17.5-7.8359-17.5-17.5s7.8359-17.5 17.5-17.5h315c9.6641 0 17.5 7.8359 17.5 17.5s-7.8359 17.5-17.5 17.5zm17.5-280c-9.6641 0-17.5-7.8359-17.5-17.5s7.8359-17.5 17.5-17.5h315c9.6641 0 17.5 7.8359 17.5 17.5s-7.8359 17.5-17.5 17.5z"/>
</svg>
