<svg width="388" height="518" viewBox="0 0 388 518" fill="none" xmlns="http://www.w3.org/2000/svg">
<path d="M301.69 97.7302H380.952C380.198 96.6521 379.444 95.574 378.476 94.6052L294.152 10.2812C293.073 9.31246 291.999 8.55851 290.921 7.69531V85.9883C290.921 92.4531 295.769 97.7303 301.691 97.7303L301.69 97.7302Z" fill="white"/>
<path d="M301.69 119.27C283.92 119.27 269.381 104.407 269.381 85.9931V0.809082H32.4611C14.6911 0.809082 0.1521 15.3441 0.1521 33.1181V484.888C0.1521 502.658 14.6911 517.197 32.4611 517.197H355.541C373.42 517.197 387.85 502.658 387.85 484.888V119.268L301.69 119.27ZM123.97 194.395C144.755 194.395 161.661 211.301 161.661 232.086C161.661 252.871 144.755 269.777 123.97 269.777C103.185 269.777 86.2791 252.871 86.2791 232.086C86.2752 211.301 103.185 194.395 123.97 194.395V194.395ZM301.66 409.775H64.3001L161.87 284.315L194.932 328.467L301.652 215.827L301.66 409.775Z" fill="white"/>
</svg>
