<svg stroke="black" width="388" height="518" viewBox="0 0 388 518" xmlns="http://www.w3.org/2000/svg">
<path d="M301.69 97.73H380.952C380.198 96.6519 379.444 95.5738 378.475 94.605L294.151 10.281C293.073 9.31222 291.999 8.55827 290.921 7.69507V85.9881C290.921 92.4529 295.769 97.7301 301.691 97.7301L301.69 97.73Z" fill="white"/>
<path d="M301.69 119.27C283.92 119.27 269.381 104.407 269.381 85.9931V0.809082H32.461C14.691 0.809082 0.151978 15.3441 0.151978 33.1181V484.888C0.151978 502.658 14.691 517.197 32.461 517.197H355.541C373.42 517.197 387.85 502.658 387.85 484.888V119.268L301.69 119.27ZM123.97 194.395C144.755 194.395 161.661 211.301 161.661 232.086C161.661 252.871 144.755 269.777 123.97 269.777C103.185 269.777 86.279 252.871 86.279 232.086C86.2751 211.301 103.185 194.395 123.97 194.395V194.395ZM301.66 409.775H64.3L161.87 284.315L194.932 328.467L301.652 215.827L301.66 409.775Z" fill="white"/>
</svg>