<svg width="434" height="558" viewBox="0 0 434 558" fill="none" xmlns="http://www.w3.org/2000/svg">
<path d="M313.13 132.35H433.46L302.14 0.560059V121.45C302.144 127.466 307.066 132.345 313.132 132.345L313.13 132.35Z" fill="white"/>
<path d="M431.01 142.92H430.869L302.049 142.897C296.288 142.897 291.596 138.205 291.596 132.444L291.6 2.9636C291.6 2.42844 291.53 1.9597 291.6 1.448C291.647 1.14331 291.553 0.842532 291.6 0.537842H33.2102C15.2222 0.537842 0.542236 15.1898 0.542236 33.2058V524.776C0.542236 542.764 15.2182 557.444 33.2102 557.444H400.8C418.788 557.444 433.468 542.768 433.468 524.776V142.926C432.652 143.133 431.855 142.926 431.015 142.926L431.01 142.92ZM203.81 336.05C203.81 342.515 203.251 347.507 202.107 350.984C200.568 355.535 197.814 359.199 193.779 361.949C189.767 364.703 184.47 366.078 177.888 366.078C170.165 366.078 164.24 363.906 160.083 359.59C155.93 355.273 153.829 348.926 153.782 340.574L168.669 338.871C168.856 343.351 169.509 346.523 170.653 348.367C172.356 351.167 174.946 352.589 178.446 352.589C181.97 352.589 184.466 351.585 185.911 349.578C187.38 347.57 188.103 343.394 188.103 337.07V286.554H203.83L203.833 336.05L203.81 336.05ZM276.47 354.554C273.974 358.476 270.45 361.367 265.9 363.281C261.349 365.195 255.681 366.128 248.888 366.128C238.993 366.128 231.411 363.843 226.115 359.269C220.819 354.695 217.646 348.046 216.619 339.296L231.971 337.804C232.904 342.96 234.772 346.741 237.596 349.167C240.42 351.593 244.244 352.784 249.03 352.784C254.116 352.784 257.944 351.71 260.534 349.565C263.1 347.417 264.409 344.897 264.409 342.03C264.409 340.186 263.874 338.6 262.776 337.315C261.678 336.03 259.788 334.889 257.104 333.932C255.26 333.303 251.038 332.159 244.456 330.526C235.987 328.425 230.058 325.858 226.651 322.803C221.843 318.51 219.44 313.26 219.44 307.076C219.44 303.088 220.561 299.377 222.823 295.9C225.085 292.424 228.331 289.787 232.577 287.99C236.823 286.17 241.956 285.26 247.952 285.26C257.776 285.26 265.147 287.408 270.12 291.725C275.089 296.041 277.679 301.76 277.936 308.944L262.139 309.643C261.464 305.631 260.014 302.737 257.8 300.987C255.585 299.237 252.245 298.35 247.788 298.35C243.19 298.35 239.62 299.283 237.007 301.174C235.327 302.389 234.51 303.998 234.51 306.026C234.51 307.869 235.303 309.455 236.866 310.764C238.85 312.444 243.702 314.17 251.378 315.991C259.054 317.811 264.749 319.678 268.413 321.616C272.1 323.553 274.972 326.213 277.046 329.573C279.124 332.932 280.171 337.084 280.171 342.034C280.182 346.432 278.944 350.631 276.472 354.554L276.47 354.554Z" fill="white"/>
</svg>
