<svg width="552" height="390" viewBox="0 0 552 390" fill="none" xmlns="http://www.w3.org/2000/svg">
<path d="M222.02 12.4178C206.676 -2.84818 181.868 -2.80517 166.579 12.5311L12.399 167.351C11.4146 168.335 10.6724 169.457 9.82476 170.519C9.02788 171.492 8.13336 172.414 7.44976 173.441C6.64507 174.664 6.07086 175.996 5.41066 177.281C4.90675 178.277 4.27006 179.218 3.85206 180.25C3.30519 181.605 3.0005 183.015 2.60986 184.418C2.31689 185.449 1.90283 186.457 1.70361 187.507C1.43408 188.918 1.40283 190.351 1.27783 191.785C1.1958 192.875 0.984863 193.929 0.984863 195.004C0.984863 196.394 1.21924 197.769 1.36377 199.148C1.48877 200.269 1.47705 201.386 1.68799 202.496C1.9458 203.816 2.43799 205.082 2.82859 206.382C3.17625 207.515 3.38719 208.668 3.8364 209.765C4.36374 211.074 5.14499 212.308 5.81689 213.562C6.35595 214.57 6.77002 215.625 7.4185 216.586C8.28178 217.886 9.3912 219.062 10.4185 220.269C11.0904 221.066 11.6294 221.925 12.3794 222.687L12.4692 222.777C12.4692 222.789 12.481 222.8 12.4927 222.812L12.5161 222.836L166.576 377.476C174.236 385.171 184.295 389.011 194.353 389.011C204.365 389.011 214.369 385.202 222.017 377.577C237.361 362.311 237.408 337.479 222.13 322.147L95.5004 195.017L222.13 67.8565C237.407 52.5205 237.349 27.7045 222.017 12.4265L222.02 12.4178Z" fill="white"/>
<path d="M546.05 213.75C546.769 212.43 547.585 211.141 548.144 209.75C548.558 208.742 548.761 207.68 549.073 206.648C549.499 205.269 550.027 203.914 550.296 202.504C550.531 201.34 550.531 200.141 550.632 198.965C550.777 197.656 551.003 196.355 551.003 195.023C551.003 193.691 550.769 192.391 550.632 191.07C550.507 189.894 550.519 188.719 550.296 187.555C550.015 186.098 549.491 184.699 549.042 183.277C548.73 182.293 548.538 181.273 548.148 180.297C547.542 178.797 546.679 177.387 545.874 175.953C545.425 175.137 545.089 174.273 544.574 173.476C543.667 172.098 542.492 170.855 541.394 169.566C540.765 168.848 540.284 168.043 539.601 167.359L539.511 167.269C539.499 167.269 539.499 167.258 539.488 167.246C539.476 167.246 539.464 167.234 539.464 167.223L385.414 12.5325C370.148 -2.81146 345.316 -2.85846 329.984 12.4193C314.64 27.6963 314.593 52.5173 329.871 67.8603L456.511 195.02L329.871 322.15C314.594 337.482 314.641 362.302 329.984 377.58C337.632 385.209 347.636 389.014 357.648 389.014C367.707 389.014 377.761 385.163 385.414 377.479L539.604 222.679C540.467 221.816 541.104 220.82 541.866 219.902C542.784 218.793 543.803 217.75 544.565 216.574C545.159 215.672 545.538 214.687 546.053 213.746L546.05 213.75Z" fill="white"/>
</svg>
