<svg width="450" height="562" viewBox="0 0 450 562" fill="none" xmlns="http://www.w3.org/2000/svg">
<path d="M431.08 561H18.92C9.02164 561 0.998047 552.977 0.998047 543.078V18.9181C0.998047 9.01969 9.02144 0.996094 18.92 0.996094H325.24V103.076C325.24 115.049 334.951 124.76 346.924 124.76H449.004V543.08C449.004 552.979 440.981 561.002 431.082 561.002L431.08 561ZM69.18 363.88H91.95V322.337H133.934V363.88H156.704V260.39H133.934V301.343H91.95V260.39H69.18V363.88ZM205.64 363.88H228.406V281.388H259.898V260.392H174.152V281.388H205.64V363.88ZM277.343 363.88H299.667V296.763L328.495 340.521H329.085L358.21 296.318V363.88H380.831V260.39H356.288L329.085 304.152L301.882 260.39H277.343L277.343 363.88ZM337.007 95.0801V1.00209L449.007 113.002H354.929C345.031 113.002 337.007 104.979 337.007 95.0801Z" fill="white"/>
</svg>